<svg xmlns="http://www.w3.org/2000/svg" fill="none">
  <symbol id="logoDesktop" viewBox="0 0 178 22">
    <path d="M3.25737 3.99724H11.845V18.1055H10.2798V5.47786H4.8226V13.0502C4.8226 13.713 4.81555 14.2135 4.80145 14.552C4.78735 14.8763 4.67454 15.3416 4.46302 15.948C4.26561 16.5402 3.96243 17.0197 3.5535 17.3863C2.91894 17.9504 2.11518 18.2324 1.1422 18.2324C0.916577 18.2324 0.634553 18.1901 0.296125 18.1055V16.6248C0.578148 16.7095 0.83902 16.7518 1.07874 16.7518C1.62869 16.7518 2.08697 16.5684 2.45361 16.2018C2.70743 15.948 2.89779 15.5884 3.0247 15.1231C3.15161 14.6436 3.22212 14.2417 3.23622 13.9174C3.25032 13.5931 3.25737 13.0925 3.25737 12.4156V3.99724ZM25.3078 18.1055V7.33922L15.4933 18.74V3.99724H17.0586V14.8058L26.873 3.40499V18.1055H25.3078ZM30.5103 18.1055V3.99724H32.0755V16.6248H39.2248V3.99724H40.79V16.6248H42.3976V21.0667H40.9169V18.1055H30.5103ZM53.9487 18.1055L52.2989 14.1289H46.2918L44.5997 18.1055H42.8652L49.3588 3.32038L55.6832 18.1055H53.9487ZM46.9052 12.6483H51.6855L49.3165 7.00079L46.9052 12.6483Z" />
    <path d="M88.9409 3.99735V10.0467L94.9479 3.99735H97.0631L90.4638 10.5755L97.2746 18.1055H95.1172L89.3428 11.6331L88.9409 12.035V18.1055H87.3757V3.99735H88.9409ZM104.855 10.5755V9.32756H106.378V18.1055H104.855V16.8787C104.093 17.8658 103.092 18.3593 101.851 18.3593C100.667 18.3593 99.6584 17.9504 98.8265 17.1325C97.9945 16.3146 97.5785 15.1724 97.5785 13.7059C97.5785 12.2676 97.9874 11.1466 98.8053 10.3428C99.6373 9.52497 100.653 9.11604 101.851 9.11604C103.12 9.11604 104.121 9.60253 104.855 10.5755ZM102.02 10.4697C101.217 10.4697 100.533 10.7588 99.9686 11.337C99.4187 11.901 99.1437 12.6907 99.1437 13.7059C99.1437 14.6789 99.3975 15.4756 99.9052 16.0961C100.427 16.7024 101.132 17.0056 102.02 17.0056C102.909 17.0056 103.614 16.6883 104.136 16.0538C104.671 15.4192 104.939 14.6437 104.939 13.7271C104.939 12.6836 104.643 11.8798 104.051 11.3158C103.459 10.7518 102.782 10.4697 102.02 10.4697ZM109.262 18.1055V9.32756H110.785V12.9233H114.931V9.32756H116.454V18.1055H114.931V14.3193H110.785V18.1055H109.262ZM119.956 9.32756H126.132V16.7095H127.444V20.4321H126.048V18.1055H119.364V20.4321H117.968V16.7095C118.701 16.6954 119.244 16.3146 119.596 15.5673C119.836 15.0737 119.956 14.2982 119.956 13.2406V9.32756ZM124.609 16.7095V10.7236H121.479V14.0232C121.479 15.1936 121.126 16.089 120.421 16.7095H124.609ZM129.05 9.32756H130.573V15.1231L136.58 8.65071V18.1055H135.057V12.2465L129.05 18.7189V9.32756ZM140.095 9.32756H146.272V16.7095H147.583V20.4321H146.187V18.1055H139.503V20.4321H138.107V16.7095C138.84 16.6954 139.383 16.3146 139.736 15.5673C139.976 15.0737 140.095 14.2982 140.095 13.2406V9.32756ZM144.749 16.7095V10.7236H141.618V14.0232C141.618 15.1936 141.266 16.089 140.561 16.7095H144.749ZM155.916 10.5755V9.32756H157.439V18.1055H155.916V16.8787C155.154 17.8658 154.153 18.3593 152.912 18.3593C151.728 18.3593 150.72 17.9504 149.888 17.1325C149.056 16.3146 148.64 15.1724 148.64 13.7059C148.64 12.2676 149.049 11.1466 149.867 10.3428C150.699 9.52497 151.714 9.11604 152.912 9.11604C154.182 9.11604 155.183 9.60253 155.916 10.5755ZM153.082 10.4697C152.278 10.4697 151.594 10.7588 151.03 11.337C150.48 11.901 150.205 12.6907 150.205 13.7059C150.205 14.6789 150.459 15.4756 150.966 16.0961C151.488 16.7024 152.193 17.0056 153.082 17.0056C153.97 17.0056 154.675 16.6883 155.197 16.0538C155.733 15.4192 156.001 14.6437 156.001 13.7271C156.001 12.6836 155.704 11.8798 155.112 11.3158C154.52 10.7518 153.843 10.4697 153.082 10.4697ZM166.076 10.7236H163.327V18.1055H161.804V10.7236H159.054V9.32756H166.076V10.7236ZM167.677 18.1055V9.32756H169.2V12.6907H170.765C171.978 12.6907 172.866 12.9797 173.43 13.5579C173.881 14.0091 174.107 14.6225 174.107 15.3981C174.107 16.2159 173.846 16.8716 173.324 17.3652C172.802 17.8587 171.942 18.1055 170.744 18.1055H167.677ZM169.2 16.7518H170.617C171.251 16.7518 171.703 16.6742 171.97 16.5191C172.351 16.2653 172.542 15.8916 172.542 15.3981C172.542 14.8904 172.358 14.5238 171.992 14.2982C171.738 14.129 171.287 14.0444 170.638 14.0444H169.2V16.7518ZM175.164 18.1055V9.32756H176.687V18.1055H175.164Z" />
    <circle cx="69.9429" cy="10.7663" r="10.7527" transform="rotate(-91.4047 69.9429 10.7663)" fill="#F1DF6F"/>
    <path d="M83.5997 11.5835L80.3365 11.6635C79.2405 8.74533 77.2875 3.24882 78.2239 3.84048C79.1603 4.43214 82.1964 9.18504 83.5997 11.5835Z" fill="#F1DF6F"/>
    <circle cx="66.9433" cy="7.46473" r="1.54677"/>
  </symbol>

  <symbol id="logoMobile" viewBox="0 0 35 31">
    <circle cx="15.3474" cy="15.4649" r="14.9027" transform="rotate(-91.4047 15.3474 15.4649)" fill="#F1DF6F"/>
    <path d="M34.2757 16.5975L29.7531 16.7084C28.2341 12.6639 25.5273 5.04597 26.8251 5.86599C28.123 6.686 32.3308 13.2733 34.2757 16.5975Z" fill="#F1DF6F"/>
    <circle cx="11.1887" cy="10.8889" r="2.14375" />
  </symbol>

  <symbol id="zoom" viewBox="0 0 16 16">
    <path d="M6 2C3.79086 2 2 3.79086 2 6C2 8.20914 3.79086 10 6 10C8.20914 10 10 8.20914 10 6C10 3.79086 8.20914 2 6 2ZM0 6C0 2.68629 2.68629 0 6 0C9.31371 0 12 2.68629 12 6C12 7.29583 11.5892 8.49572 10.8907 9.47653L15.7071 14.2929C16.0976 14.6834 16.0976 15.3166 15.7071 15.7071C15.3166 16.0976 14.6834 16.0976 14.2929 15.7071L9.47653 10.8907C8.49572 11.5892 7.29583 12 6 12C2.68629 12 0 9.31371 0 6Z" />
  </symbol>

  <symbol id="chevron" viewBox="0 0 20 20">
    <path d="M5.29289 7.29289C5.68342 6.90237 6.31658 6.90237 6.7071 7.29289L9.99999 10.5858L13.2929 7.29289C13.6834 6.90237 14.3166 6.90237 14.7071 7.29289C15.0976 7.68342 15.0976 8.31658 14.7071 8.70711L10.7071 12.7071C10.3166 13.0976 9.68341 13.0976 9.29289 12.7071L5.29289 8.70711C4.90237 8.31658 4.90237 7.68342 5.29289 7.29289Z" />
  </symbol>

  <symbol id="exit" viewBox="0 0 24 24">
    <path d="M14.695 3.057a1.04 1.04 0 0 0-.567.459c-.091.156-.108.23-.108.484 0 .256.016.328.111.489.061.103.173.236.25.294.264.202.348.213 1.659.218 1.373.004 1.564.031 1.977.28.277.167.601.506.755.79.232.429.227.282.227 5.929 0 5.645.005 5.496-.227 5.931-.147.277-.581.712-.842.844-.405.205-.568.225-1.852.225-1.291 0-1.43.018-1.696.221-.08.061-.195.194-.254.295-.091.156-.108.23-.108.484 0 .256.016.328.111.489.061.103.173.236.25.294.266.204.343.213 1.713.215 1.118.002 1.321-.008 1.663-.077 1.627-.332 2.832-1.537 3.164-3.164.076-.377.079-.559.079-5.757 0-5.198-.003-5.38-.079-5.757-.2-.979-.724-1.828-1.483-2.4a3.945 3.945 0 0 0-1.833-.785c-.512-.077-2.665-.078-2.91-.001M11.67 7.061c-.222.081-.42.248-.542.455-.092.156-.108.229-.107.484 0 .213.022.341.074.44.041.077.616.685 1.279 1.35L13.578 11H8.735c-3.987 0-4.874.01-5.025.055a1.02 1.02 0 0 0-.582.461c-.091.156-.108.23-.108.484 0 .256.016.328.111.489.125.213.318.375.539.454.122.044 1.058.054 5.029.055l4.879.002-1.204 1.21c-.663.666-1.236 1.271-1.273 1.345-.229.454-.045 1.046.407 1.312.165.097.235.113.492.113.254 0 .328-.016.48-.107.225-.134 4.325-4.241 4.425-4.433.052-.099.074-.228.074-.44.001-.255-.015-.327-.106-.48-.06-.101-1.039-1.108-2.22-2.285-1.905-1.897-2.132-2.111-2.31-2.17a1.015 1.015 0 0 0-.673-.004" />
  </symbol>

  <symbol id="user" viewBox="0 0 24 24">
    <path d="M11.358 4.061c-1.128.176-2.215.913-2.789 1.892a3.992 3.992 0 0 0 1.943 5.751 3.988 3.988 0 0 0 5.192-2.216 3.963 3.963 0 0 0 .001-2.972 3.978 3.978 0 0 0-3.1-2.458 3.728 3.728 0 0 0-1.247.003m1.165 2.012a2.011 2.011 0 0 1 1.444 1.617c.1.653-.094 1.243-.564 1.714-.401.403-.856.596-1.403.596-.515 0-.962-.178-1.347-.535-1.33-1.236-.464-3.46 1.347-3.46.143 0 .378.031.523.068m-3.165 6.988c-1.36.212-2.532 1.151-3.069 2.46-.219.533-.289 1.001-.288 1.925 0 1.168.097 1.499.575 1.978.278.277.547.429.913.516.387.091 8.628.089 9.029-.002a1.943 1.943 0 0 0 1.409-1.375c.105-.404.101-1.791-.006-2.32a4.017 4.017 0 0 0-2.676-3.039c-.536-.184-.867-.204-3.285-.2-1.669.003-2.349.018-2.602.057m5.165 2.012c.343.09.675.293.931.569.429.463.544.837.545 1.768L16 18H8v-.602c0-.402.021-.694.062-.876.153-.672.739-1.272 1.415-1.449.234-.061.515-.068 2.523-.068s2.289.007 2.523.068" />
  </symbol>

  <symbol id="target" viewBox="0 0 60 60" fill="none">
    <rect width="60" height="60" rx="12" fill="#F1DF6F"/>
    <path d="M46.5 30C46.5 39.1127 39.1127 46.5 30 46.5C20.8873 46.5 13.5 39.1127 13.5 30C13.5 20.8873 20.8873 13.5 30 13.5M30 30H30.0183" stroke="#111827" stroke-width="3.66667" stroke-linecap="round" />
    <path d="M39.1663 30.0007C39.1663 35.0633 35.0623 39.1673 29.9997 39.1673C24.9371 39.1673 20.833 35.0633 20.833 30.0007C20.833 24.938 24.9371 20.834 29.9997 20.834M29.9997 30.0007H30.0099" stroke="#111827" stroke-width="3.66667" stroke-linecap="round" />
    <path d="M30 30.0007L39.1667 20.834M39.1667 20.834V15.334M39.1667 20.834L44.6667 19.9173" stroke="#111827" stroke-width="3.66667" stroke-linecap="round"/>
  </symbol>

  <symbol id="terminal" viewBox="0 0 60 60" fill="none">
    <rect width="60" height="60" rx="12" fill="#F1DF6F"/>
    <path d="M22.6667 24.5007L28.1667 30.0007L22.6667 35.5007M31.8333 35.5007H37.3333M17.1667 44.6673H42.8333C44.8584 44.6673 46.5 43.0257 46.5 41.0007V19.0007C46.5 16.9756 44.8584 15.334 42.8333 15.334H17.1667C15.1416 15.334 13.5 16.9756 13.5 19.0007V41.0007C13.5 43.0257 15.1416 44.6673 17.1667 44.6673Z" stroke="#111827" stroke-width="3.66667" stroke-linecap="round" stroke-linejoin="round" />
  </symbol>

  <symbol id="schedule" viewBox="0 0 60 60" fill="none">
    <rect width="60" height="60" rx="12" fill="#F1DF6F"/>
    <path d="M37.333 22.6673V37.334M29.9997 28.1673V37.334M22.6663 33.6673V37.334M18.9997 44.6673H40.9997C43.0247 44.6673 44.6663 43.0257 44.6663 41.0007V19.0007C44.6663 16.9756 43.0247 15.334 40.9997 15.334H18.9997C16.9746 15.334 15.333 16.9756 15.333 19.0007V41.0007C15.333 43.0257 16.9746 44.6673 18.9997 44.6673Z" stroke="#111827" stroke-width="3.66667" stroke-linecap="round" />
  </symbol>

  <symbol id="community" viewBox="0 0 60 60" fill="none">
    <rect width="60" height="60" rx="12" fill="#F1DF6F"/>
    <path d="M39.167 44.6673H48.3337V41.0007C48.3337 37.9631 45.8712 35.5007 42.8337 35.5007C41.0817 35.5007 39.5211 36.3198 38.5139 37.596M39.167 44.6673H20.8337M39.167 44.6673V41.0007C39.167 39.7975 38.9352 38.6486 38.5139 37.596M20.8337 44.6673H11.667V41.0007C11.667 37.9631 14.1294 35.5007 17.167 35.5007C18.9189 35.5007 20.4796 36.3198 21.4868 37.596M20.8337 44.6673V41.0007C20.8337 39.7975 21.0654 38.6486 21.4868 37.596M21.4868 37.596C22.8384 34.2192 26.1408 31.834 30.0003 31.834C33.8598 31.834 37.1622 34.2192 38.5139 37.596M35.5003 20.834C35.5003 23.8716 33.0379 26.334 30.0003 26.334C26.9628 26.334 24.5003 23.8716 24.5003 20.834C24.5003 17.7964 26.9628 15.334 30.0003 15.334C33.0379 15.334 35.5003 17.7964 35.5003 20.834ZM46.5003 26.334C46.5003 28.359 44.8587 30.0007 42.8337 30.0007C40.8086 30.0007 39.167 28.359 39.167 26.334C39.167 24.3089 40.8086 22.6673 42.8337 22.6673C44.8587 22.6673 46.5003 24.3089 46.5003 26.334ZM20.8337 26.334C20.8337 28.359 19.192 30.0007 17.167 30.0007C15.1419 30.0007 13.5003 28.359 13.5003 26.334C13.5003 24.3089 15.1419 22.6673 17.167 22.6673C19.192 22.6673 20.8337 24.3089 20.8337 26.334Z" stroke="#111827" stroke-width="3.66667" />
  </symbol>

  <symbol id="scenery" viewBox="0 0 60 60" fill="none">
    <rect width="60" height="60" rx="12" fill="#F1DF6F"/>
    <path d="M15.333 37.334L23.7403 28.9267C25.1722 27.4948 27.4938 27.4948 28.9257 28.9267L37.333 37.334M33.6663 33.6673L36.5736 30.76C38.0055 29.3281 40.3271 29.3281 41.7591 30.76L44.6663 33.6673M33.6663 22.6673H33.6847M18.9997 44.6673H40.9997C43.0247 44.6673 44.6663 43.0257 44.6663 41.0007V19.0007C44.6663 16.9756 43.0247 15.334 40.9997 15.334H18.9997C16.9746 15.334 15.333 16.9756 15.333 19.0007V41.0007C15.333 43.0257 16.9746 44.6673 18.9997 44.6673Z" stroke="#111827" stroke-width="3.66667" stroke-linecap="round" />
  </symbol>

  <symbol id="analytics" viewBox="0 0 60 60" fill="none">
    <rect width="60" height="60" rx="12" fill="#F1DF6F"/>
    <path d="M31.8333 20.834H46.5M46.5 20.834V35.5007M46.5 20.834L31.8333 35.5007L24.5 28.1673L13.5 39.1673" stroke="#111827" stroke-width="3.66667" stroke-linecap="round" />
  </symbol>

  <symbol id="message" viewBox="0 0 60 60" fill="none">
    <rect width="60" height="60" rx="12" fill="#F1DF6F"/>
    <path d="M20.8333 22.6673H39.1667M20.8333 30.0007H28.1667M30 44.6673L22.6667 37.334H17.1667C15.1416 37.334 13.5 35.6924 13.5 33.6673V19.0007C13.5 16.9756 15.1416 15.334 17.1667 15.334H42.8333C44.8584 15.334 46.5 16.9756 46.5 19.0007V33.6673C46.5 35.6924 44.8584 37.334 42.8333 37.334H37.3333L30 44.6673Z" stroke="#111827" stroke-width="3.66667" stroke-linecap="round" />
  </symbol>

  <symbol id="star" viewBox="0 0 60 60" fill="none">
    <rect width="60" height="60" rx="12" fill="#F1DF6F"/>
    <g clip-path="url(#clip0_53_4248)">
      <path d="M28.2564 13.3655C28.8053 11.6765 31.1947 11.6765 31.7436 13.3655L34.5281 21.9343C34.7736 22.6897 35.4774 23.201 36.2716 23.2011L45.2815 23.2014C47.0575 23.2015 47.7959 25.474 46.3591 26.5179L39.0702 31.8141C38.4277 32.2809 38.1588 33.1084 38.4042 33.8637L41.1881 42.4327C41.7368 44.1218 39.8037 45.5262 38.3669 44.4824L31.0776 39.1868C30.435 38.72 29.565 38.72 28.9224 39.1868L21.6331 44.4824C20.1963 45.5262 18.2632 44.1218 18.8119 42.4327L21.5958 33.8637C21.8412 33.1084 21.5723 32.2809 20.9298 31.8141L13.6409 26.5179C12.2041 25.474 12.9425 23.2015 14.7185 23.2014L23.7284 23.2011C24.5226 23.201 25.2264 22.6897 25.4719 21.9343L28.2564 13.3655Z" stroke="#111827" stroke-width="3.66667"/>
    </g>
    <defs>
      <clipPath id="clip0_53_4248">
        <rect width="44" height="44" fill="white" transform="translate(8 8)"/>
      </clipPath>
    </defs>
  </symbol>

  <symbol id="checkMark" viewBox="0 0 40 40" fill="none">
    <rect x="6.66602" y="8.33398" width="30" height="30" rx="2" fill="#F1DF6F"/>
    <path d="M3.33398 20.834C7.22287 21.1118 18.0007 23.5007 23.334 30.834C23.6118 24.4451 26.1673 10.0007 34.1673 3.33398" stroke="#111827" stroke-width="4" stroke-linecap="round" stroke-linejoin="round"/>
  </symbol>
</svg>
